<?xml version="1.0" encoding="UTF-8" standalone="no"?><!DOCTYPE svg PUBLIC "-//W3C//DTD SVG 1.1//EN" "http://www.w3.org/Graphics/SVG/1.1/DTD/svg11.dtd"><svg width="100%" height="100%" viewBox="0 0 1800 480" version="1.1" xmlns="http://www.w3.org/2000/svg" xmlns:xlink="http://www.w3.org/1999/xlink" xml:space="preserve" xmlns:serif="http://www.serif.com/" style="fill-rule:evenodd;clip-rule:evenodd;stroke-linejoin:round;stroke-miterlimit:2;"><rect id="On-White" serif:id="On White" x="0" y="0" width="1800" height="480" style="fill:none;"/><g><circle cx="267.253" cy="222.508" r="148.8" style="fill:#a9111b;"/><path d="M269.329,124.303c30.761,29.703 68.196,52.693 112.304,68.969c-4.069,3.337 -7.894,8.098 -11.474,14.282c-41.504,-19.531 -76.416,-45.45 -104.737,-77.758c-27.343,38.899 -63.598,68.074 -108.764,87.524l-3.785,-5.493c45.655,-23.763 80.892,-57.943 105.713,-102.539c14.323,3.743 21.485,7.08 21.485,10.01c-0,1.953 -3.581,3.54 -10.742,4.76l-0,0.245Zm-71.167,93.017l35.034,0l9.155,-11.23c9.684,7.649 14.526,12.573 14.526,14.77c0,1.139 -0.651,2.116 -1.953,2.93l-5.493,3.784l0,79.956l-14.038,0l-0,-18.188l-38.696,-0l-0,21.728l-14.283,0l0,-100.708c6.429,2.604 11.678,4.924 15.748,6.958Zm-1.465,6.226l-0,59.57l38.696,-0l-0,-59.57l-38.696,-0Zm95.459,-8.301l38.696,-0l9.155,-10.986c10.417,7.812 15.625,12.898 15.625,15.258c0,0.733 -0.529,1.465 -1.587,2.198l-6.714,4.516l0,69.58c0,12.614 -7.242,18.921 -21.728,18.921c-0.488,0 -1.099,-0.081 -1.831,-0.244c-0.244,-4.72 -2.564,-7.935 -6.958,-9.643c-4.232,-1.547 -10.539,-2.889 -18.921,-4.029l-0,-6.836c9.928,1.14 19.084,1.709 27.466,1.709c5.289,0 7.934,-2.482 7.934,-7.446l0,-67.017l-43.945,0l0,114.502l-14.526,0l-0,-128.784c4.964,2.035 10.742,4.802 17.334,8.301Zm-8.789,-32.227l11.474,-13.794c5.941,4.72 11.353,9.807 16.236,15.259l-2.686,4.761l-86.06,-0l-2.685,-6.226l63.721,0Z" style="fill:#f2f3fb;fill-rule:nonzero;"/><path d="M593.784,234.414l-58.77,0c-0.625,0 -1.179,-0.226 -1.665,-0.678c-0.485,-0.453 -0.728,-0.992 -0.728,-1.618l0,-5.95c0,-0.627 0.226,-1.166 0.676,-1.618c0.451,-0.453 0.988,-0.679 1.613,-0.679c7.281,-0.487 12.274,-1.322 14.978,-2.505c3.051,-1.253 4.577,-5.22 4.577,-11.9l0,-105.013c0,-6.333 -1.352,-10.265 -4.057,-11.796c-3.051,-1.391 -8.252,-2.4 -15.602,-3.027c-0.555,0 -1.058,-0.226 -1.509,-0.678c-0.45,-0.453 -0.676,-0.992 -0.676,-1.618l0,-5.95c0,-0.627 0.243,-1.166 0.728,-1.618c0.486,-0.453 1.04,-0.679 1.665,-0.679l58.77,0c0.624,0 1.161,0.226 1.612,0.679c0.451,0.452 0.676,0.991 0.676,1.618l0,5.95c0,0.626 -0.208,1.165 -0.624,1.618c-0.416,0.452 -0.901,0.678 -1.456,0.678c-6.796,0.487 -11.615,1.392 -14.459,2.714c-3.536,1.531 -5.305,5.568 -5.305,12.109l0,105.013c0,6.193 1.457,10.056 4.369,11.587c2.913,1.461 8.01,2.4 15.291,2.818c0.624,0 1.144,0.244 1.56,0.731c0.416,0.487 0.624,1.009 0.624,1.566l0,5.95c0,0.626 -0.225,1.165 -0.676,1.618c-0.451,0.452 -0.988,0.678 -1.612,0.678Z" style="fill:#222121;fill-rule:nonzero;"/><path d="M789.322,89.63c-6.658,0.487 -11.269,1.288 -13.835,2.401c-3.12,1.601 -4.681,5.602 -4.681,12.005l0,130.169c0,0.627 -0.242,1.166 -0.728,1.618c-0.485,0.453 -1.04,0.679 -1.664,0.679l-9.154,-0c-0.832,-0 -1.456,-0.313 -1.872,-0.94l-92.472,-130.378l-0,104.073c-0,6.333 1.387,10.265 4.161,11.796c2.981,1.461 7.801,2.4 14.458,2.818c0.624,0 1.144,0.244 1.56,0.731c0.416,0.487 0.624,1.009 0.624,1.566l0,5.95c0,0.626 -0.225,1.165 -0.676,1.618c-0.45,0.452 -0.988,0.678 -1.612,0.678l-52.633,0c-0.624,0 -1.162,-0.226 -1.612,-0.678c-0.451,-0.453 -0.677,-0.992 -0.677,-1.618l0,-5.95c0,-0.627 0.208,-1.166 0.624,-1.618c0.417,-0.453 0.902,-0.679 1.457,-0.679c6.657,-0.487 11.476,-1.322 14.458,-2.505c3.121,-1.531 4.681,-5.568 4.681,-12.109l0,-104.386c0,-6.751 -1.421,-10.891 -4.265,-12.422c-2.149,-1.183 -7.385,-2.123 -15.706,-2.819c-0.555,0 -1.041,-0.226 -1.457,-0.678c-0.416,-0.453 -0.624,-0.992 -0.624,-1.618l0,-5.95c0,-0.627 0.226,-1.166 0.676,-1.618c0.451,-0.453 0.989,-0.679 1.613,-0.679l38.486,0c0.833,0 1.457,0.313 1.873,0.94l85.295,120.566l-0,-96.557c-0,-6.194 -1.387,-10.056 -4.161,-11.587c-2.982,-1.462 -8.079,-2.401 -15.291,-2.819c-0.624,0 -1.144,-0.243 -1.56,-0.73c-0.416,-0.488 -0.624,-1.01 -0.624,-1.566l-0,-5.95c-0,-0.627 0.225,-1.166 0.676,-1.618c0.451,-0.453 0.988,-0.679 1.612,-0.679l52.842,0c0.624,0 1.161,0.226 1.612,0.679c0.451,0.452 0.676,0.991 0.676,1.618l-0,5.95c-0,0.626 -0.208,1.165 -0.624,1.618c-0.416,0.452 -0.902,0.678 -1.456,0.678Z" style="fill:#222121;fill-rule:nonzero;"/><path d="M877.013,73.659c20.388,0 37.585,7.029 51.593,21.086c15.742,16.076 23.612,36.501 23.612,61.275c0,26.166 -7.94,47.252 -23.82,63.258c-13.869,13.849 -30.997,20.773 -51.385,20.773c-20.318,-0 -37.481,-6.994 -51.489,-20.982c-15.949,-16.006 -23.924,-36.883 -23.924,-62.632c-0,-25.052 7.905,-45.616 23.716,-61.692c14.008,-14.057 31.24,-21.086 51.697,-21.086Zm0,12.318c-16.504,-0 -29.645,6.785 -39.423,20.355c-9.015,12.596 -13.522,29.159 -13.522,49.688c-0,18.233 3.502,33.473 10.506,45.721c9.5,16.911 23.647,25.366 42.439,25.366c16.296,0 29.333,-6.75 39.111,-20.251c9.223,-12.526 13.834,-29.228 13.834,-50.105c0,-22.269 -5.2,-39.841 -15.602,-52.715c-9.57,-12.04 -22.017,-18.059 -37.343,-18.059Z" style="fill:#222121;fill-rule:nonzero;"/><path d="M1114.85,185.248c-4.646,17.537 -12.725,30.968 -24.236,40.293c-11.581,9.534 -25.346,14.301 -41.296,14.301c-20.803,0 -38.036,-6.855 -51.697,-20.564c-15.533,-15.38 -23.3,-35.978 -23.3,-61.797c0,-25.748 7.906,-46.66 23.716,-62.736c13.939,-14.057 31.102,-21.086 51.489,-21.086c16.089,0 30.235,4.35 42.44,13.048c2.219,1.531 3.745,2.367 4.577,2.506c0.762,-0.766 1.248,-2.923 1.456,-6.472c-0,-0.627 0.243,-1.148 0.728,-1.566c0.485,-0.418 1.006,-0.626 1.56,-0.626l6.553,-0c0.625,-0 1.162,0.226 1.613,0.678c0.451,0.453 0.676,0.992 0.676,1.618l-0,43.007c-0,0.627 -0.225,1.166 -0.676,1.618c-0.451,0.453 -0.988,0.679 -1.613,0.679l-6.345,-0c-0.554,-0 -1.057,-0.192 -1.508,-0.574c-0.451,-0.383 -0.711,-0.818 -0.78,-1.305c-1.942,-9.812 -5.894,-18.129 -11.858,-24.948c-9.084,-10.091 -20.977,-15.136 -35.678,-15.136c-19.764,-0 -34.43,8.559 -44,25.679c-6.865,12.595 -10.298,27.244 -10.298,43.946c0,19.903 5.097,36.153 15.291,48.749c10.54,12.943 24.028,19.415 40.463,19.415c12.69,0 23.196,-3.514 31.517,-10.543c8.322,-7.028 14.598,-17.71 18.828,-32.046c0.208,-0.696 0.624,-1.183 1.248,-1.462c0.624,-0.278 1.213,-0.313 1.768,-0.104l7.802,2.61c0.624,0.139 1.074,0.504 1.352,1.096c0.277,0.591 0.347,1.165 0.208,1.722Z" style="fill:#222121;fill-rule:nonzero;"/><path d="M1294.43,234.414l-58.562,0c-0.624,0 -1.179,-0.226 -1.665,-0.678c-0.485,-0.453 -0.728,-0.992 -0.728,-1.618l0,-5.95c0,-0.627 0.226,-1.166 0.676,-1.618c0.451,-0.453 0.989,-0.679 1.613,-0.679c7.35,-0.487 12.135,-1.287 14.354,-2.401c3.329,-1.531 4.993,-5.532 4.993,-12.004l0,-48.749l-75.517,0l-0,48.749c-0,6.263 1.317,10.125 3.953,11.587c2.635,1.391 7.801,2.331 15.498,2.818c0.624,0 1.144,0.244 1.561,0.731c0.416,0.487 0.624,1.009 0.624,1.566l-0,5.95c-0,0.626 -0.226,1.165 -0.676,1.618c-0.451,0.452 -0.989,0.678 -1.613,0.678l-58.146,0c-0.624,0 -1.179,-0.226 -1.664,-0.678c-0.486,-0.453 -0.728,-0.992 -0.728,-1.618l-0,-5.95c-0,-0.627 0.225,-1.166 0.676,-1.618c0.45,-0.453 0.953,-0.679 1.508,-0.679c6.935,-0.487 11.789,-1.322 14.563,-2.505c3.398,-1.531 5.096,-5.498 5.096,-11.9l0,-105.013c0,-6.333 -1.421,-10.265 -4.264,-11.796c-2.497,-1.322 -7.628,-2.331 -15.395,-3.027c-0.624,0 -1.144,-0.243 -1.56,-0.73c-0.416,-0.488 -0.624,-1.01 -0.624,-1.566l-0,-5.95c-0,-0.627 0.242,-1.166 0.728,-1.618c0.485,-0.453 1.04,-0.679 1.664,-0.679l58.146,0c0.624,0 1.162,0.226 1.613,0.679c0.45,0.452 0.676,0.991 0.676,1.618l-0,5.95c-0,0.626 -0.208,1.165 -0.624,1.618c-0.417,0.452 -0.902,0.678 -1.457,0.678c-6.796,0.487 -11.684,1.392 -14.666,2.714c-3.26,1.253 -4.889,5.289 -4.889,12.109l-0,42.903l75.517,-0l0,-42.694c0,-6.124 -1.734,-10.056 -5.201,-11.796c-2.774,-1.461 -7.87,-2.54 -15.29,-3.236c-0.625,0 -1.145,-0.243 -1.561,-0.73c-0.416,-0.488 -0.624,-1.01 -0.624,-1.566l0,-5.95c0,-0.627 0.243,-1.166 0.728,-1.618c0.486,-0.453 1.04,-0.679 1.665,-0.679l59.602,0c0.624,0 1.162,0.226 1.612,0.679c0.451,0.452 0.676,0.991 0.676,1.618l0,5.95c0,0.626 -0.208,1.165 -0.624,1.618c-0.416,0.452 -0.901,0.678 -1.456,0.678c-8.044,0.696 -13.453,1.775 -16.227,3.236c-2.635,1.462 -3.952,5.394 -3.952,11.796l-0,104.804c-0,6.054 1.56,9.916 4.68,11.587c2.566,1.461 7.698,2.4 15.395,2.818c0.624,0 1.144,0.244 1.56,0.731c0.416,0.487 0.624,1.009 0.624,1.566l0,5.95c0,0.626 -0.225,1.165 -0.676,1.618c-0.45,0.452 -0.988,0.678 -1.612,0.678Z" style="fill:#222121;fill-rule:nonzero;"/><path d="M1395.72,234.414l-58.77,0c-0.624,0 -1.179,-0.226 -1.665,-0.678c-0.485,-0.453 -0.728,-0.992 -0.728,-1.618l0,-5.95c0,-0.627 0.226,-1.166 0.676,-1.618c0.451,-0.453 0.989,-0.679 1.613,-0.679c7.281,-0.487 12.274,-1.322 14.978,-2.505c3.052,-1.253 4.577,-5.22 4.577,-11.9l0,-105.013c0,-6.333 -1.352,-10.265 -4.057,-11.796c-3.051,-1.391 -8.252,-2.4 -15.602,-3.027c-0.555,0 -1.058,-0.226 -1.509,-0.678c-0.45,-0.453 -0.676,-0.992 -0.676,-1.618l0,-5.95c0,-0.627 0.243,-1.166 0.728,-1.618c0.486,-0.453 1.041,-0.679 1.665,-0.679l58.77,0c0.624,0 1.162,0.226 1.612,0.679c0.451,0.452 0.676,0.991 0.676,1.618l0,5.95c0,0.626 -0.208,1.165 -0.624,1.618c-0.416,0.452 -0.901,0.678 -1.456,0.678c-6.796,0.487 -11.615,1.392 -14.458,2.714c-3.537,1.531 -5.305,5.568 -5.305,12.109l-0,105.013c-0,6.193 1.456,10.056 4.368,11.587c2.913,1.461 8.01,2.4 15.291,2.818c0.624,0 1.144,0.244 1.56,0.731c0.416,0.487 0.624,1.009 0.624,1.566l0,5.95c0,0.626 -0.225,1.165 -0.676,1.618c-0.45,0.452 -0.988,0.678 -1.612,0.678Z" style="fill:#222121;fill-rule:nonzero;"/><path d="M1438.55,79.087l64.907,0c22.537,0 40.463,4.906 53.778,14.719c19,13.987 28.501,34.865 28.501,62.631c-0,34.935 -13.904,58.596 -41.712,70.983c-10.679,4.663 -24.548,6.994 -41.607,6.994l-63.867,0c-0.624,0 -1.179,-0.226 -1.665,-0.678c-0.485,-0.453 -0.728,-0.992 -0.728,-1.618l0,-5.95c0,-0.627 0.226,-1.166 0.676,-1.618c0.451,-0.453 0.954,-0.679 1.509,-0.679c6.726,-0.487 11.58,-1.322 14.562,-2.505c3.398,-1.531 5.097,-5.498 5.097,-11.9l0,-105.013c0,-5.985 -1.04,-9.708 -3.12,-11.169l-0.104,-0c-2.219,-1.74 -7.698,-2.958 -16.435,-3.654c-0.555,0 -1.058,-0.226 -1.509,-0.678c-0.45,-0.453 -0.676,-0.992 -0.676,-1.618l0,-5.95c0,-0.627 0.243,-1.166 0.728,-1.618c0.486,-0.453 1.041,-0.679 1.665,-0.679Zm63.243,11.483l-7.697,-0c-3.537,-0 -6.762,0.348 -9.674,1.044c-4.577,1.183 -6.865,5.462 -6.865,12.839l-0,104.804c-0,5.915 1.595,9.638 4.784,11.169c2.497,1.253 6.415,1.879 11.755,1.879l7.697,0c17.406,0 30.235,-2.923 38.487,-8.768c15.602,-10.856 23.404,-30.237 23.404,-58.143c-0,-21.852 -5.097,-38.119 -15.291,-48.801c-10.194,-10.682 -25.727,-16.023 -46.6,-16.023Z" style="fill:#222121;fill-rule:nonzero;"/><path d="M1683.46,73.659c20.387,0 37.585,7.029 51.593,21.086c15.741,16.076 23.612,36.501 23.612,61.275c-0,26.166 -7.94,47.252 -23.82,63.258c-13.869,13.849 -30.998,20.773 -51.385,20.773c-20.319,-0 -37.482,-6.994 -51.489,-20.982c-15.95,-16.006 -23.925,-36.883 -23.925,-62.632c0,-25.052 7.906,-45.616 23.717,-61.692c14.007,-14.057 31.24,-21.086 51.697,-21.086Zm-0,12.318c-16.505,-0 -29.646,6.785 -39.423,20.355c-9.015,12.596 -13.523,29.159 -13.523,49.688c0,18.233 3.502,33.473 10.506,45.721c9.501,16.911 23.647,25.366 42.44,25.366c16.296,0 29.333,-6.75 39.111,-20.251c9.223,-12.526 13.834,-29.228 13.834,-50.105c0,-22.269 -5.201,-39.841 -15.603,-52.715c-9.569,-12.04 -22.017,-18.059 -37.342,-18.059Z" style="fill:#222121;fill-rule:nonzero;"/><path d="M561.329,367.902l-21.77,-0l0,-2.506c1.928,0 3.563,-0.19 4.906,-0.571c2.044,-0.44 3.066,-2.14 3.066,-5.099l0,-47.034c0,-2.725 -0.686,-4.366 -2.058,-4.923c-0.906,-0.381 -2.847,-0.571 -5.826,-0.571l0,-2.77c4.818,-0.088 9.417,-0.542 13.798,-1.362l-0,56.66c-0,2.725 0.803,4.395 2.409,5.011c1.168,0.439 2.993,0.659 5.475,0.659l-0,2.506Z" style="fill:#222121;fill-rule:nonzero;"/><path d="M586.55,304.165c1.285,-0 2.365,0.454 3.241,1.362c0.905,0.909 1.358,1.993 1.358,3.253c-0,2.989 -1.533,4.484 -4.599,4.484c-2.979,-0 -4.468,-1.495 -4.468,-4.484c-0,-3.077 1.489,-4.615 4.468,-4.615Zm10.6,63.737l-21.332,-0l0,-2.506c1.957,0 3.563,-0.19 4.819,-0.571c1.985,-0.528 2.978,-2.242 2.978,-5.143l0,-26.902c0,-2.842 -0.715,-4.527 -2.146,-5.055c-0.905,-0.351 -2.789,-0.527 -5.651,-0.527l0,-2.726c4.877,-0.087 9.447,-0.571 13.71,-1.45l0,36.66c0,2.696 0.686,4.322 2.059,4.879c1.343,0.557 3.197,0.835 5.563,0.835l-0,2.506Z" style="fill:#222121;fill-rule:nonzero;"/><path d="M656.799,326.978c-3.68,0.088 -6.191,1.802 -7.534,5.143l-15.243,37.846l-3.154,0l-14.892,-36.835c-1.052,-2.608 -2.19,-4.322 -3.417,-5.143c-0.876,-0.557 -2.307,-0.894 -4.292,-1.011l-0,-2.506l19.009,0l0,2.506c-3.883,0.088 -5.825,1.201 -5.825,3.341c-0,0.615 0.204,1.436 0.613,2.461l11.301,29.891l11.695,-29.803c0.467,-1.26 0.701,-2.168 0.701,-2.725c-0,-2.022 -2.147,-3.077 -6.439,-3.165l-0,-2.506l17.477,0l-0,2.506Z" style="fill:#222121;fill-rule:nonzero;"/><path d="M679.304,304.165c1.285,-0 2.365,0.454 3.241,1.362c0.905,0.909 1.358,1.993 1.358,3.253c0,2.989 -1.533,4.484 -4.599,4.484c-2.979,-0 -4.468,-1.495 -4.468,-4.484c0,-3.077 1.489,-4.615 4.468,-4.615Zm10.6,63.737l-21.331,-0l-0,-2.506c1.956,0 3.562,-0.19 4.818,-0.571c1.985,-0.528 2.978,-2.242 2.978,-5.143l0,-26.902c0,-2.842 -0.715,-4.527 -2.146,-5.055c-0.905,-0.351 -2.789,-0.527 -5.65,-0.527l-0,-2.726c4.876,-0.087 9.446,-0.571 13.709,-1.45l0,36.66c0,2.696 0.687,4.322 2.059,4.879c1.343,0.557 3.198,0.835 5.563,0.835l-0,2.506Z" style="fill:#222121;fill-rule:nonzero;"/><path d="M755.816,367.902l-21.594,-0l0,-2.506l0.088,0c1.869,0 3.446,-0.161 4.73,-0.484c1.986,-0.527 2.979,-2.271 2.979,-5.23l-0,-18.902c-0,-9.055 -3.329,-13.582 -9.987,-13.582c-6.482,-0 -11.023,3.59 -13.622,10.769l-0,21.715c-0,2.754 0.803,4.439 2.409,5.055c1.168,0.439 2.935,0.659 5.3,0.659l-0,2.506l-21.594,-0l-0,-2.506c2.132,0 3.767,-0.19 4.906,-0.571c1.985,-0.528 2.978,-2.242 2.978,-5.143l0,-26.902c0,-2.842 -0.715,-4.527 -2.146,-5.055c-0.993,-0.351 -2.906,-0.527 -5.738,-0.527l-0,-2.726c5.139,-0.087 9.651,-0.571 13.535,-1.45l-0,9.451c3.679,-6.096 8.76,-9.143 15.242,-9.143c9.812,-0 14.718,5.392 14.718,16.176l-0,20.176c-0,2.725 0.861,4.41 2.584,5.055c1.11,0.439 2.847,0.659 5.212,0.659l0,2.506Z" style="fill:#222121;fill-rule:nonzero;"/><path d="M799.784,324.912c3.213,-3.751 6.498,-5.626 9.856,-5.626c2.92,-0 4.38,1.26 4.38,3.78c-0,2.198 -1.08,3.297 -3.241,3.297c-1.928,-0 -2.935,-1.143 -3.023,-3.429c-2.365,0.293 -4.219,1.377 -5.562,3.253c4,2.666 6,6.623 6,11.868c0,5.48 -2.307,9.539 -6.92,12.176c-2.891,1.67 -6.206,2.506 -9.943,2.506c-2.424,-0 -5.023,-0.367 -7.797,-1.099c-2.161,0.908 -3.241,2.168 -3.241,3.78c-0,2.989 3.314,4.703 9.943,5.143l5.037,0.351c11.301,0.821 16.951,4.88 16.951,12.176c0,3.81 -1.708,6.931 -5.125,9.363c-3.796,2.755 -9.081,4.132 -15.856,4.132c-5.898,0 -10.775,-1.084 -14.63,-3.253c-3.883,-2.168 -5.825,-5.157 -5.825,-8.967c-0,-5.802 4.336,-9.377 13.009,-10.725l-0,-0.264c-5.694,-1.289 -8.541,-3.604 -8.541,-6.945c-0,-2.931 1.795,-4.938 5.387,-6.022c-5.431,-2.432 -8.147,-6.389 -8.147,-11.868c0,-4.865 2.03,-8.792 6.088,-11.781c3.3,-2.403 7.213,-3.604 11.739,-3.604c3.621,-0 6.775,0.586 9.461,1.758Zm-9.548,1.363c-3.446,-0 -6.279,1.113 -8.498,3.34c-2.219,2.198 -3.329,5.099 -3.329,8.704c0,7.56 3.972,11.341 11.914,11.341c4.03,-0 7.14,-1.202 9.33,-3.605c1.869,-2.022 2.803,-4.718 2.803,-8.088c0,-3.282 -1.08,-6.007 -3.241,-8.176c-2.248,-2.344 -5.242,-3.516 -8.979,-3.516Zm0.482,38.989c-9.345,0 -14.017,2.843 -14.017,8.528c0,3.135 1.489,5.568 4.468,7.296c2.569,1.495 5.898,2.242 9.987,2.242c5.84,0 10.147,-1.436 12.921,-4.307c1.489,-1.495 2.234,-3.268 2.234,-5.319c-0,-5.627 -5.198,-8.44 -15.593,-8.44Z" style="fill:#222121;fill-rule:nonzero;"/><path d="M907.037,364.561c-1.314,3.106 -3.46,4.659 -6.439,4.659c-4.205,0 -6.395,-2.564 -6.57,-7.692c-3.65,5.245 -8.731,7.868 -15.243,7.868c-3.942,0 -7.227,-1.04 -9.855,-3.121c-2.804,-2.286 -4.205,-5.348 -4.205,-9.187c-0,-9.465 8.045,-14.696 24.134,-15.692l4.556,-0.264l-0,-1.626c-0,-9.026 -3.534,-13.539 -10.6,-13.539c-4.702,0 -7.899,1.568 -9.593,4.703c1.694,0.264 2.541,1.348 2.541,3.253c-0,2.579 -1.314,3.868 -3.943,3.868c-2.89,0 -4.336,-1.465 -4.336,-4.395c0,-2.462 1.373,-4.718 4.117,-6.77c3.271,-2.461 7.169,-3.692 11.695,-3.692c10.513,0 15.769,5.26 15.769,15.78l0,18.286c0,6.008 1.022,9.011 3.066,9.011c1.256,0 2.322,-0.908 3.198,-2.725l1.708,1.275Zm-13.622,-7.912l-0,-12.352l-3.767,0.176c-12.44,0.615 -18.66,4.644 -18.66,12.088c0,2.754 0.862,5.011 2.585,6.769c1.693,1.67 3.825,2.506 6.395,2.506c3.504,-0 6.643,-1.085 9.417,-3.253c1.869,-1.524 3.212,-3.502 4.03,-5.934Z" style="fill:#222121;fill-rule:nonzero;"/><path d="M972.161,367.902l-21.594,-0l-0,-2.506l0.088,0c1.868,0 3.445,-0.161 4.73,-0.484c1.986,-0.527 2.979,-2.271 2.979,-5.23l-0,-18.902c-0,-9.055 -3.329,-13.582 -9.987,-13.582c-6.483,-0 -11.024,3.59 -13.622,10.769l-0,21.715c-0,2.754 0.803,4.439 2.409,5.055c1.168,0.439 2.934,0.659 5.3,0.659l-0,2.506l-21.595,-0l0,-2.506c2.132,0 3.767,-0.19 4.906,-0.571c1.986,-0.528 2.979,-2.242 2.979,-5.143l-0,-26.902c-0,-2.842 -0.716,-4.527 -2.147,-5.055c-0.992,-0.351 -2.905,-0.527 -5.738,-0.527l0,-2.726c5.14,-0.087 9.651,-0.571 13.535,-1.45l0,9.451c3.679,-6.096 8.76,-9.143 15.243,-9.143c9.812,-0 14.717,5.392 14.717,16.176l0,20.176c0,2.725 0.862,4.41 2.585,5.055c1.109,0.439 2.847,0.659 5.212,0.659l0,2.506Z" style="fill:#222121;fill-rule:nonzero;"/><path d="M1035.66,367.902l-13.448,-0l-0.438,-7.737c-3.474,5.802 -8.409,8.704 -14.804,8.704c-5.081,-0 -9.359,-1.729 -12.834,-5.187c-4.176,-4.22 -6.264,-10.052 -6.264,-17.495c0,-7.443 2.146,-13.319 6.439,-17.627c3.592,-3.604 7.84,-5.406 12.746,-5.406c6.249,-0 11.213,2.608 14.893,7.824l-0,-18.198c-0,-2.784 -0.687,-4.454 -2.059,-5.011c-0.905,-0.381 -2.876,-0.571 -5.913,-0.571l-0,-2.77c4.906,0 9.505,-0.454 13.797,-1.362l0,56.528c0,2.813 0.803,4.527 2.409,5.143c1.168,0.439 2.993,0.659 5.476,0.659l-0,2.506Zm-13.71,-17.407l-0,-11.869c-0,-3.282 -1.825,-6.227 -5.476,-8.835c-2.598,-1.963 -5.475,-2.945 -8.628,-2.945c-4.089,0 -7.403,1.773 -9.943,5.319c-2.453,3.546 -3.68,8.132 -3.68,13.758c0,6.037 1.402,10.828 4.205,14.374c2.599,3.253 5.87,4.879 9.812,4.879c4.234,0 7.753,-1.949 10.556,-5.846c2.102,-2.93 3.154,-5.876 3.154,-8.835Z" style="fill:#222121;fill-rule:nonzero;"/><path d="M1105.95,367.902l-21.77,-0l0,-2.506c1.927,0 3.563,-0.19 4.906,-0.571c2.044,-0.44 3.066,-2.14 3.066,-5.099l0,-47.034c0,-2.725 -0.686,-4.366 -2.059,-4.923c-0.905,-0.381 -2.847,-0.571 -5.825,-0.571l-0,-2.77c4.818,-0.088 9.417,-0.542 13.797,-1.362l0,56.66c0,2.725 0.803,4.395 2.409,5.011c1.168,0.439 2.993,0.659 5.476,0.659l-0,2.506Z" style="fill:#222121;fill-rule:nonzero;"/><path d="M1162.23,344.912l-33.815,0l-0,1.539c-0,5.919 1.796,10.725 5.388,14.417c3.007,2.99 6.657,4.484 10.95,4.484c6.424,0 11.388,-3.121 14.892,-9.363l2.41,1.89c-3.826,7.62 -9.943,11.429 -18.353,11.429c-6.249,0 -11.403,-2.037 -15.462,-6.11c-4.059,-4.19 -6.089,-9.802 -6.089,-16.835c0,-7.473 2.147,-13.363 6.439,-17.671c3.738,-3.839 8.498,-5.758 14.279,-5.758c5.607,0 10.148,1.802 13.623,5.407c3.825,3.839 5.738,8.82 5.738,14.945l-0,1.626Zm-6.089,-3.428c-0.175,-5.158 -1.664,-9.158 -4.467,-12c-2.424,-2.345 -5.388,-3.517 -8.892,-3.517c-4.176,0 -7.651,1.832 -10.425,5.495c-1.986,2.608 -3.197,5.948 -3.635,10.022l27.419,-0Z" style="fill:#222121;fill-rule:nonzero;"/><path d="M1223.32,364.561c-1.314,3.106 -3.46,4.659 -6.439,4.659c-4.205,0 -6.395,-2.564 -6.57,-7.692c-3.65,5.245 -8.731,7.868 -15.243,7.868c-3.942,0 -7.227,-1.04 -9.855,-3.121c-2.803,-2.286 -4.205,-5.348 -4.205,-9.187c-0,-9.465 8.045,-14.696 24.135,-15.692l4.555,-0.264l-0,-1.626c-0,-9.026 -3.533,-13.539 -10.6,-13.539c-4.701,0 -7.899,1.568 -9.593,4.703c1.694,0.264 2.541,1.348 2.541,3.253c-0,2.579 -1.314,3.868 -3.942,3.868c-2.891,0 -4.337,-1.465 -4.337,-4.395c0,-2.462 1.373,-4.718 4.118,-6.77c3.27,-2.461 7.169,-3.692 11.695,-3.692c10.512,0 15.768,5.26 15.768,15.78l0,18.286c0,6.008 1.022,9.011 3.066,9.011c1.256,0 2.322,-0.908 3.198,-2.725l1.708,1.275Zm-13.622,-7.912l-0,-12.352l-3.767,0.176c-12.44,0.615 -18.66,4.644 -18.66,12.088c0,2.754 0.862,5.011 2.585,6.769c1.693,1.67 3.825,2.506 6.395,2.506c3.504,-0 6.643,-1.085 9.417,-3.253c1.869,-1.524 3.212,-3.502 4.03,-5.934Z" style="fill:#222121;fill-rule:nonzero;"/><path d="M1250.6,334.495c1.343,-3.253 3.431,-6.081 6.263,-8.484c2.512,-1.993 5.169,-2.989 7.972,-2.989c3.417,-0 5.125,1.538 5.125,4.615c0,2.755 -1.256,4.132 -3.767,4.132c-2.511,0 -3.767,-1.231 -3.767,-3.692c0,-0.147 0.059,-0.572 0.175,-1.275c-2.336,0.205 -4.73,1.714 -7.183,4.528c-1.927,2.285 -3.387,5.069 -4.38,8.351l-0,20.001c-0,2.725 0.657,4.351 1.971,4.879c1.343,0.557 3.373,0.835 6.088,0.835l0,2.506l-21.944,-0l-0,-2.506c2.131,0 3.767,-0.19 4.905,-0.571c1.986,-0.528 2.979,-2.242 2.979,-5.143l-0,-26.902c-0,-2.842 -0.715,-4.527 -2.146,-5.055c-0.993,-0.351 -2.877,-0.527 -5.651,-0.527l0,-2.726c5.11,-0.087 9.564,-0.571 13.36,-1.45l-0,11.473Z" style="fill:#222121;fill-rule:nonzero;"/><path d="M1333.73,367.902l-21.594,-0l0,-2.506l0.088,0c1.869,0 3.446,-0.161 4.73,-0.484c1.986,-0.527 2.979,-2.271 2.979,-5.23l-0,-18.902c-0,-9.055 -3.329,-13.582 -9.987,-13.582c-6.483,-0 -11.023,3.59 -13.622,10.769l-0,21.715c-0,2.754 0.803,4.439 2.409,5.055c1.168,0.439 2.935,0.659 5.3,0.659l-0,2.506l-21.594,-0l-0,-2.506c2.131,0 3.767,-0.19 4.906,-0.571c1.985,-0.528 2.978,-2.242 2.978,-5.143l0,-26.902c0,-2.842 -0.715,-4.527 -2.146,-5.055c-0.993,-0.351 -2.906,-0.527 -5.738,-0.527l-0,-2.726c5.139,-0.087 9.651,-0.571 13.534,-1.45l0,9.451c3.68,-6.096 8.761,-9.143 15.243,-9.143c9.812,-0 14.718,5.392 14.718,16.176l-0,20.176c-0,2.725 0.861,4.41 2.584,5.055c1.11,0.439 2.847,0.659 5.212,0.659l0,2.506Z" style="fill:#222121;fill-rule:nonzero;"/><path d="M1358.46,304.165c1.285,-0 2.366,0.454 3.242,1.362c0.905,0.909 1.358,1.993 1.358,3.253c-0,2.989 -1.533,4.484 -4.6,4.484c-2.978,-0 -4.467,-1.495 -4.467,-4.484c-0,-3.077 1.489,-4.615 4.467,-4.615Zm10.6,63.737l-21.331,-0l0,-2.506c1.957,0 3.563,-0.19 4.818,-0.571c1.986,-0.528 2.979,-2.242 2.979,-5.143l-0,-26.902c-0,-2.842 -0.716,-4.527 -2.147,-5.055c-0.905,-0.351 -2.788,-0.527 -5.65,-0.527l0,-2.726c4.877,-0.087 9.447,-0.571 13.71,-1.45l-0,36.66c-0,2.696 0.686,4.322 2.059,4.879c1.343,0.557 3.197,0.835 5.562,0.835l0,2.506Z" style="fill:#222121;fill-rule:nonzero;"/><path d="M1434.98,367.902l-21.594,-0l-0,-2.506l0.087,0c1.869,0 3.446,-0.161 4.731,-0.484c1.986,-0.527 2.979,-2.271 2.979,-5.23l-0,-18.902c-0,-9.055 -3.329,-13.582 -9.987,-13.582c-6.483,-0 -11.024,3.59 -13.623,10.769l0,21.715c0,2.754 0.804,4.439 2.41,5.055c1.168,0.439 2.934,0.659 5.3,0.659l-0,2.506l-21.595,-0l0,-2.506c2.132,0 3.767,-0.19 4.906,-0.571c1.986,-0.528 2.979,-2.242 2.979,-5.143l-0,-26.902c-0,-2.842 -0.716,-4.527 -2.147,-5.055c-0.992,-0.351 -2.905,-0.527 -5.738,-0.527l0,-2.726c5.14,-0.087 9.651,-0.571 13.535,-1.45l0,9.451c3.679,-6.096 8.76,-9.143 15.243,-9.143c9.812,-0 14.717,5.392 14.717,16.176l0,20.176c0,2.725 0.862,4.41 2.585,5.055c1.109,0.439 2.847,0.659 5.212,0.659l0,2.506Z" style="fill:#222121;fill-rule:nonzero;"/><path d="M1478.94,324.912c3.212,-3.751 6.497,-5.626 9.855,-5.626c2.92,-0 4.381,1.26 4.381,3.78c-0,2.198 -1.081,3.297 -3.242,3.297c-1.927,-0 -2.934,-1.143 -3.022,-3.429c-2.365,0.293 -4.22,1.377 -5.563,3.253c4.001,2.666 6.001,6.623 6.001,11.868c-0,5.48 -2.307,9.539 -6.921,12.176c-2.891,1.67 -6.205,2.506 -9.943,2.506c-2.423,-0 -5.022,-0.367 -7.796,-1.099c-2.161,0.908 -3.242,2.168 -3.242,3.78c0,2.989 3.315,4.703 9.943,5.143l5.037,0.351c11.301,0.821 16.952,4.88 16.952,12.176c-0,3.81 -1.709,6.931 -5.125,9.363c-3.796,2.755 -9.082,4.132 -15.856,4.132c-5.899,0 -10.775,-1.084 -14.63,-3.253c-3.884,-2.168 -5.826,-5.157 -5.826,-8.967c0,-5.802 4.337,-9.377 13.009,-10.725l0,-0.264c-5.694,-1.289 -8.541,-3.604 -8.541,-6.945c0,-2.931 1.796,-4.938 5.388,-6.022c-5.432,-2.432 -8.147,-6.389 -8.147,-11.868c-0,-4.865 2.029,-8.792 6.088,-11.781c3.3,-2.403 7.213,-3.604 11.739,-3.604c3.621,-0 6.775,0.586 9.461,1.758Zm-9.549,1.363c-3.445,-0 -6.278,1.113 -8.497,3.34c-2.22,2.198 -3.329,5.099 -3.329,8.704c-0,7.56 3.971,11.341 11.914,11.341c4.03,-0 7.14,-1.202 9.33,-3.605c1.868,-2.022 2.803,-4.718 2.803,-8.088c-0,-3.282 -1.081,-6.007 -3.241,-8.176c-2.249,-2.344 -5.242,-3.516 -8.98,-3.516Zm0.482,38.989c-9.344,0 -14.016,2.843 -14.016,8.528c-0,3.135 1.489,5.568 4.467,7.296c2.57,1.495 5.899,2.242 9.987,2.242c5.84,0 10.147,-1.436 12.922,-4.307c1.489,-1.495 2.233,-3.268 2.233,-5.319c0,-5.627 -5.197,-8.44 -15.593,-8.44Z" style="fill:#222121;fill-rule:nonzero;"/></g></svg>